<?xml version="1.0" encoding="UTF-8"?>
<mxfile host="app.diagrams.net">
  <diagram name="Vibration Features Extraction" id="VibFeatures001">
    <mxGraphModel dx="1080" dy="720" grid="1" gridSize="10" guides="1" tooltips="1" connect="1" arrows="1" fold="1" page="1" pageScale="1" pageWidth="827" pageHeight="1169" math="0" shadow="0">
      <root>
        <mxCell id="0"/>
        <mxCell id="1" parent="0"/>
        
        <!-- 输入信号 -->
        <mxCell id="2" value="输入原始振动信号 &#10;amplitude_list, time_lag" style="rounded=1;fillColor=#dae8fc;strokeColor=#6c8ebf;fontSize=12;fontColor=#000000;" vertex="1" parent="1">
          <mxGeometry x="200" y="20" width="180" height="60" as="geometry"/>
        </mxCell>

        <!-- 计算采样率与频率分辨率 -->
        <mxCell id="3" value="计算采样率和频率分辨率 &#10;N=len(amplitude) &#10;fs=N/time_lag &#10;delta_fre=1/(N/fs)" style="rounded=1;fillColor=#fff2cc;strokeColor=#d6b656;fontSize=12;" vertex="1" parent="1">
          <mxGeometry x="200" y="120" width="200" height="80" as="geometry"/>
        </mxCell>

        <!-- FFT -->
        <mxCell id="4" value="FFT计算幅值谱与幅值平方谱 &#10;am_spec = |FFT(raw)|/(N/2) &#10;am_spec2 = am_spec^2" style="rounded=1;fillColor=#d5e8d4;strokeColor=#82b366;fontSize=12;" vertex="1" parent="1">
          <mxGeometry x="200" y="240" width="220" height="80" as="geometry"/>
        </mxCell>

        <!-- 包络谱 -->
        <mxCell id="5" value="包络谱计算 &#10;1. 高频滤波: &lt;500Hz置零 &#10;2. IFFT → filtered_raw &#10;3. Hilbert包络: en_raw &#10;4. FFT(en_raw) → en_spec" style="rounded=1;fillColor=#f8cecc;strokeColor=#b85450;fontSize=12;" vertex="1" parent="1">
          <mxGeometry x="200" y="360" width="260" height="120" as="geometry"/>
        </mxCell>

        <!-- RMS特征 -->
        <mxCell id="6" value="RMS特征 (band_rms) &#10;低频RMS(5-400Hz) &#10;中频RMS(400-3500Hz) &#10;加速度RMS(10-3900Hz) &#10;转频RMS(5-65Hz) &#10;谐频RMS(65-400Hz) &#10;啮合RMS(400-2500Hz) &#10;冲击RMS(2500-3900Hz)" style="rounded=1;fillColor=#e1d5e7;strokeColor=#9673a6;fontSize=12;" vertex="1" parent="1">
          <mxGeometry x="500" y="240" width="220" height="160" as="geometry"/>
        </mxCell>

        <!-- 润滑因子 -->
        <mxCell id="7" value="润滑因子 Lub (lub) &#10;2500-6000Hz分段取最小3值累加" style="rounded=1;fillColor=#fff2cc;strokeColor=#d6b656;fontSize=12;" vertex="1" parent="1">
          <mxGeometry x="500" y="420" width="200" height="60" as="geometry"/>
        </mxCell>

        <!-- 包络谱特征 -->
        <mxCell id="8" value="包络谱特征 (band_main) &#10;包络转频因子(5条主谱线, 5-65Hz) &#10;包络谐频因子(13条主谱线, 65-1000Hz)" style="rounded=1;fillColor=#f8cecc;strokeColor=#b85450;fontSize=12;" vertex="1" parent="1">
          <mxGeometry x="500" y="520" width="220" height="80" as="geometry"/>
        </mxCell>

        <!-- 速度RMS与位移峰峰值 -->
        <mxCell id="9" value="速度RMS &amp; 位移峰峰值 &#10;Vrms, DISPpp = get_Vrms_and_DISPpp(am_spec, delta_fre)" style="rounded=1;fillColor=#d5e8d4;strokeColor=#82b366;fontSize=12;" vertex="1" parent="1">
          <mxGeometry x="200" y="520" width="200" height="60" as="geometry"/>
        </mxCell>

        <!-- 汇总特征 -->
        <mxCell id="10" value="汇总特征字典输出 &#10;速度RMS, 加速度RMS, 低/中频RMS, 转/谐频RMS, 啮合/冲击RMS, &#10;包络转频, 包络谐频, 润滑因子, Vrms, DISPpp, ..." style="rounded=1;fillColor=#dae8fc;strokeColor=#6c8ebf;fontSize=12;" vertex="1" parent="1">
          <mxGeometry x="350" y="640" width="300" height="100" as="geometry"/>
        </mxCell>

        <!-- 连接线 -->
        <mxCell id="11" style="edgeStyle=orthogonalEdgeStyle;strokeColor=#000000;endArrow=classic;" edge="1" parent="1" source="2" target="3">
          <mxGeometry relative="1" as="geometry"/>
        </mxCell>
        <mxCell id="12" style="edgeStyle=orthogonalEdgeStyle;strokeColor=#000000;endArrow=classic;" edge="1" parent="1" source="3" target="4">
          <mxGeometry relative="1" as="geometry"/>
        </mxCell>
        <mxCell id="13" style="edgeStyle=orthogonalEdgeStyle;strokeColor=#000000;endArrow=classic;" edge="1" parent="1" source="4" target="5">
          <mxGeometry relative="1" as="geometry"/>
        </mxCell>
        <mxCell id="14" style="edgeStyle=orthogonalEdgeStyle;strokeColor=#000000;endArrow=classic;" edge="1" parent="1" source="4" target="6">
          <mxGeometry relative="1" as="geometry"/>
        </mxCell>
        <mxCell id="15" style="edgeStyle=orthogonalEdgeStyle;strokeColor=#000000;endArrow=classic;" edge="1" parent="1" source="5" target="8">
          <mxGeometry relative="1" as="geometry"/>
        </mxCell>
        <mxCell id="16" style="edgeStyle=orthogonalEdgeStyle;strokeColor=#000000;endArrow=classic;" edge="1" parent="1" source="4" target="9">
          <mxGeometry relative="1" as="geometry"/>
        </mxCell>
        <mxCell id="17" style="edgeStyle=orthogonalEdgeStyle;strokeColor=#000000;endArrow=classic;" edge="1" parent="1" source="6" target="10">
          <mxGeometry relative="1" as="geometry"/>
        </mxCell>
        <mxCell id="18" style="edgeStyle=orthogonalEdgeStyle;strokeColor=#000000;endArrow=classic;" edge="1" parent="1" source="7" target="10">
          <mxGeometry relative="1" as="geometry"/>
        </mxCell>
        <mxCell id="19" style="edgeStyle=orthogonalEdgeStyle;strokeColor=#000000;endArrow=classic;" edge="1" parent="1" source="8" target="10">
          <mxGeometry relative="1" as="geometry"/>
        </mxCell>
        <mxCell id="20" style="edgeStyle=orthogonalEdgeStyle;strokeColor=#000000;endArrow=classic;" edge="1" parent="1" source="9" target="10">
          <mxGeometry relative="1" as="geometry"/>
        </mxCell>

      </root>
    </mxGraphModel>
  </diagram>
</mxfile>
